<svg xmlns="http://www.w3.org/2000/svg" width="620" height="300" viewBox="0 0 620 300" font-family="'Georgia',serif" font-size="12">
<rect width="620" height="300" fill="#fafafa" rx="4"/>

<line x1="70" y1="30" x2="70" y2="245" stroke="#ddd" stroke-width="0.8" stroke-dasharray="3,3"/><line x1="132.5" y1="30" x2="132.5" y2="245" stroke="#ddd" stroke-width="0.8" stroke-dasharray="3,3"/><line x1="195" y1="30" x2="195" y2="245" stroke="#ddd" stroke-width="0.8" stroke-dasharray="3,3"/><line x1="257.5" y1="30" x2="257.5" y2="245" stroke="#ddd" stroke-width="0.8" stroke-dasharray="3,3"/><line x1="320" y1="30" x2="320" y2="245" stroke="#ddd" stroke-width="0.8" stroke-dasharray="3,3"/><line x1="382.49999999999994" y1="30" x2="382.49999999999994" y2="245" stroke="#ddd" stroke-width="0.8" stroke-dasharray="3,3"/><line x1="445.00000000000006" y1="30" x2="445.00000000000006" y2="245" stroke="#ddd" stroke-width="0.8" stroke-dasharray="3,3"/><line x1="507.49999999999994" y1="30" x2="507.49999999999994" y2="245" stroke="#ddd" stroke-width="0.8" stroke-dasharray="3,3"/><line x1="570" y1="30" x2="570" y2="245" stroke="#ddd" stroke-width="0.8" stroke-dasharray="3,3"/><line x1="70" y1="245" x2="570" y2="245" stroke="#ddd" stroke-width="0.8" stroke-dasharray="3,3"/><line x1="70" y1="191.25" x2="570" y2="191.25" stroke="#ddd" stroke-width="0.8" stroke-dasharray="3,3"/><line x1="70" y1="137.5" x2="570" y2="137.5" stroke="#ddd" stroke-width="0.8" stroke-dasharray="3,3"/><line x1="70" y1="83.75" x2="570" y2="83.75" stroke="#ddd" stroke-width="0.8" stroke-dasharray="3,3"/><line x1="70" y1="30" x2="570" y2="30" stroke="#ddd" stroke-width="0.8" stroke-dasharray="3,3"/>
<line x1="70" y1="30" x2="70" y2="245" stroke="#555" stroke-width="1.2"/> <line x1="70" y1="245" x2="570" y2="245" stroke="#555" stroke-width="1.2"/>
<line x1="70" y1="245" x2="70" y2="250" stroke="#555" stroke-width="1"/>
<text x="70" y="263" text-anchor="middle" fill="#333" font-size="11">0.2</text><line x1="132.5" y1="245" x2="132.5" y2="250" stroke="#555" stroke-width="1"/>
<text x="132.5" y="263" text-anchor="middle" fill="#333" font-size="11">0.3</text><line x1="195" y1="245" x2="195" y2="250" stroke="#555" stroke-width="1"/>
<text x="195" y="263" text-anchor="middle" fill="#333" font-size="11">0.4</text><line x1="257.5" y1="245" x2="257.5" y2="250" stroke="#555" stroke-width="1"/>
<text x="257.5" y="263" text-anchor="middle" fill="#333" font-size="11">0.5</text><line x1="320" y1="245" x2="320" y2="250" stroke="#555" stroke-width="1"/>
<text x="320" y="263" text-anchor="middle" fill="#333" font-size="11">0.6</text><line x1="382.49999999999994" y1="245" x2="382.49999999999994" y2="250" stroke="#555" stroke-width="1"/>
<text x="382.49999999999994" y="263" text-anchor="middle" fill="#333" font-size="11">0.7</text><line x1="445.00000000000006" y1="245" x2="445.00000000000006" y2="250" stroke="#555" stroke-width="1"/>
<text x="445.00000000000006" y="263" text-anchor="middle" fill="#333" font-size="11">0.8</text><line x1="507.49999999999994" y1="245" x2="507.49999999999994" y2="250" stroke="#555" stroke-width="1"/>
<text x="507.49999999999994" y="263" text-anchor="middle" fill="#333" font-size="11">0.9</text><line x1="570" y1="245" x2="570" y2="250" stroke="#555" stroke-width="1"/>
<text x="570" y="263" text-anchor="middle" fill="#333" font-size="11">1.0</text> <line x1="70" y1="245" x2="65" y2="245" stroke="#555" stroke-width="1"/>
<text x="62" y="249" text-anchor="end" fill="#333" font-size="11">0.00</text><line x1="70" y1="191.25" x2="65" y2="191.25" stroke="#555" stroke-width="1"/>
<text x="62" y="195.25" text-anchor="end" fill="#333" font-size="11">0.25</text><line x1="70" y1="137.5" x2="65" y2="137.5" stroke="#555" stroke-width="1"/>
<text x="62" y="141.5" text-anchor="end" fill="#333" font-size="11">0.50</text><line x1="70" y1="83.75" x2="65" y2="83.75" stroke="#555" stroke-width="1"/>
<text x="62" y="87.75" text-anchor="end" fill="#333" font-size="11">0.75</text><line x1="70" y1="30" x2="65" y2="30" stroke="#555" stroke-width="1"/>
<text x="62" y="34" text-anchor="end" fill="#333" font-size="11">1.00</text>
<path d="M70.00,245.00 L82.50,228.13 L95.00,211.37 L107.50,194.81 L120.00,178.56 L132.50,162.72 L145.00,147.39 L157.50,132.66 L170.00,118.63 L182.50,105.37 L195.00,92.97 L207.50,81.51 L220.00,71.06 L232.50,61.68 L245.00,53.43 L257.50,46.37 L270.00,40.52 L282.50,35.94 L295.00,32.65 L307.50,30.66 L320.00,30.00 L332.50,30.66 L345.00,32.65 L357.50,35.94 L370.00,40.52 L382.50,46.37 L395.00,53.43 L407.50,61.68 L420.00,71.06 L432.50,81.51 L445.00,92.97 L457.50,105.37 L470.00,118.63 L482.50,132.66 L495.00,147.39 L507.50,162.72 L520.00,178.56 L532.50,194.81 L545.00,211.37 L557.50,228.13 L570.00,245.00"    fill="none" stroke="#27ae60" stroke-width="2" stroke-dasharray="10,4"/>
<path d="M70.00,245.00 L82.50,245.00 L95.00,245.00 L107.50,245.00 L120.00,245.00 L132.50,245.00 L145.00,235.97 L157.50,218.29 L170.00,201.36 L182.50,185.18 L195.00,169.75 L207.50,155.08 L220.00,141.16 L232.50,127.99 L245.00,115.57 L257.50,103.91 L270.00,92.99 L282.50,82.84 L295.00,73.43 L307.50,64.78 L320.00,56.88 L332.50,49.73 L345.00,43.33 L357.50,37.69 L370.00,32.80 L382.50,28.66 L395.00,25.27 L407.50,22.64 L420.00,20.75 L432.50,19.63 L445.00,19.25 L457.50,19.63 L470.00,20.75 L482.50,22.64 L495.00,25.27 L507.50,28.66 L520.00,32.79 L532.50,37.69 L545.00,43.33 L557.50,49.73 L570.00,56.88" fill="none" stroke="#e74c3c" stroke-width="2"/>
<path d="M70.00,245.00 L82.50,228.20 L95.00,211.63 L107.50,195.40 L120.00,179.59 L132.50,164.30 L145.00,149.61 L157.50,135.60 L170.00,122.34 L182.50,109.90 L195.00,98.35 L207.50,87.73 L220.00,78.10 L232.50,69.50 L245.00,61.97 L257.50,55.54 L270.00,50.25 L282.50,46.10 L295.00,43.13 L307.50,41.35 L320.00,40.75 L332.50,41.35 L345.00,43.13 L357.50,46.10 L370.00,50.25 L382.50,55.54 L395.00,61.97 L407.50,69.50 L420.00,78.10 L432.50,87.73 L445.00,98.35 L457.50,109.90 L470.00,122.34 L482.50,135.60 L495.00,149.61 L507.50,164.30 L520.00,179.59 L532.50,195.40 L545.00,211.63 L557.50,228.20 L570.00,245.00"  fill="none" stroke="#2980b9" stroke-width="2.2"/>
<text x="320" y="285" text-anchor="middle" fill="#333" font-size="12">r/R (non-dimensional radius)</text>
<text x="22" y="137.5" text-anchor="middle" fill="#333" font-size="12" transform="rotate(-90,22,137.5)">Normalised thrust loading dKT/d(r/R)</text>
<text x="320" y="18" text-anchor="middle" fill="#222" font-size="13" font-weight="bold">Radial Thrust Distribution — Tip Unloading (10 iterations)</text>
<line x1="90" y1="46" x2="114" y2="46" stroke="#e74c3c" stroke-width="2" />
<text x="120" y="50" fill="#333" font-size="11">Initial (before unloading)</text>
<line x1="90" y1="64" x2="114" y2="64" stroke="#2980b9" stroke-width="2" />
<text x="120" y="68" fill="#333" font-size="11">Final (after 10 iterations)</text>
<line x1="90" y1="82" x2="114" y2="82" stroke="#27ae60" stroke-width="2" stroke-dasharray="6,3"/>
<text x="120" y="86" fill="#333" font-size="11">Elliptical ideal (minimum induced loss)</text>

</svg>