<svg xmlns="http://www.w3.org/2000/svg" width="620" height="320" viewBox="0 0 620 320" font-family="'Georgia',serif" font-size="12">
<rect width="620" height="320" fill="#fafafa" rx="4"/>

<line x1="70" y1="30" x2="70" y2="265" stroke="#ddd" stroke-width="0.8" stroke-dasharray="3,3"/><line x1="131.25" y1="30" x2="131.25" y2="265" stroke="#ddd" stroke-width="0.8" stroke-dasharray="3,3"/><line x1="192.5" y1="30" x2="192.5" y2="265" stroke="#ddd" stroke-width="0.8" stroke-dasharray="3,3"/><line x1="253.74999999999997" y1="30" x2="253.74999999999997" y2="265" stroke="#ddd" stroke-width="0.8" stroke-dasharray="3,3"/><line x1="315" y1="30" x2="315" y2="265" stroke="#ddd" stroke-width="0.8" stroke-dasharray="3,3"/><line x1="376.24999999999994" y1="30" x2="376.24999999999994" y2="265" stroke="#ddd" stroke-width="0.8" stroke-dasharray="3,3"/><line x1="437.50000000000006" y1="30" x2="437.50000000000006" y2="265" stroke="#ddd" stroke-width="0.8" stroke-dasharray="3,3"/><line x1="498.74999999999994" y1="30" x2="498.74999999999994" y2="265" stroke="#ddd" stroke-width="0.8" stroke-dasharray="3,3"/><line x1="560" y1="30" x2="560" y2="265" stroke="#ddd" stroke-width="0.8" stroke-dasharray="3,3"/><line x1="70" y1="265" x2="560" y2="265" stroke="#ddd" stroke-width="0.8" stroke-dasharray="3,3"/><line x1="70" y1="211.5909090909091" x2="560" y2="211.5909090909091" stroke="#ddd" stroke-width="0.8" stroke-dasharray="3,3"/><line x1="70" y1="158.1818181818182" x2="560" y2="158.1818181818182" stroke="#ddd" stroke-width="0.8" stroke-dasharray="3,3"/><line x1="70" y1="104.77272727272728" x2="560" y2="104.77272727272728" stroke="#ddd" stroke-width="0.8" stroke-dasharray="3,3"/><line x1="70" y1="51.363636363636374" x2="560" y2="51.363636363636374" stroke="#ddd" stroke-width="0.8" stroke-dasharray="3,3"/>
<line x1="70" y1="30" x2="70" y2="265" stroke="#555" stroke-width="1.2"/> <line x1="70" y1="265" x2="560" y2="265" stroke="#555" stroke-width="1.2"/> <line x1="560" y1="30" x2="560" y2="265" stroke="#555" stroke-width="1.2"/>
<line x1="70" y1="265" x2="70" y2="270" stroke="#555" stroke-width="1"/>
<text x="70" y="283" text-anchor="middle" fill="#333" font-size="11">0.2</text><line x1="131.25" y1="265" x2="131.25" y2="270" stroke="#555" stroke-width="1"/>
<text x="131.25" y="283" text-anchor="middle" fill="#333" font-size="11">0.3</text><line x1="192.5" y1="265" x2="192.5" y2="270" stroke="#555" stroke-width="1"/>
<text x="192.5" y="283" text-anchor="middle" fill="#333" font-size="11">0.4</text><line x1="253.74999999999997" y1="265" x2="253.74999999999997" y2="270" stroke="#555" stroke-width="1"/>
<text x="253.74999999999997" y="283" text-anchor="middle" fill="#333" font-size="11">0.5</text><line x1="315" y1="265" x2="315" y2="270" stroke="#555" stroke-width="1"/>
<text x="315" y="283" text-anchor="middle" fill="#333" font-size="11">0.6</text><line x1="376.24999999999994" y1="265" x2="376.24999999999994" y2="270" stroke="#555" stroke-width="1"/>
<text x="376.24999999999994" y="283" text-anchor="middle" fill="#333" font-size="11">0.7</text><line x1="437.50000000000006" y1="265" x2="437.50000000000006" y2="270" stroke="#555" stroke-width="1"/>
<text x="437.50000000000006" y="283" text-anchor="middle" fill="#333" font-size="11">0.8</text><line x1="498.74999999999994" y1="265" x2="498.74999999999994" y2="270" stroke="#555" stroke-width="1"/>
<text x="498.74999999999994" y="283" text-anchor="middle" fill="#333" font-size="11">0.9</text><line x1="560" y1="265" x2="560" y2="270" stroke="#555" stroke-width="1"/>
<text x="560" y="283" text-anchor="middle" fill="#333" font-size="11">1.0</text>
<line x1="70" y1="265" x2="65" y2="265" stroke="#555" stroke-width="1"/>
<text x="62" y="269" text-anchor="end" fill="#333" font-size="11">0</text><line x1="70" y1="211.5909090909091" x2="65" y2="211.5909090909091" stroke="#555" stroke-width="1"/>
<text x="62" y="215.5909090909091" text-anchor="end" fill="#333" font-size="11">500</text><line x1="70" y1="158.1818181818182" x2="65" y2="158.1818181818182" stroke="#555" stroke-width="1"/>
<text x="62" y="162.1818181818182" text-anchor="end" fill="#333" font-size="11">1000</text><line x1="70" y1="104.77272727272728" x2="65" y2="104.77272727272728" stroke="#555" stroke-width="1"/>
<text x="62" y="108.77272727272728" text-anchor="end" fill="#333" font-size="11">1500</text><line x1="70" y1="51.363636363636374" x2="65" y2="51.363636363636374" stroke="#555" stroke-width="1"/>
<text x="62" y="55.363636363636374" text-anchor="end" fill="#333" font-size="11">2000</text>
<line x1="560" y1="265" x2="565" y2="265" stroke="#555" stroke-width="1"/>
<text x="570" y="269" fill="#e67e22" font-size="11">6000</text><line x1="560" y1="216.04166666666666" x2="565" y2="216.04166666666666" stroke="#555" stroke-width="1"/>
<text x="570" y="220.04166666666666" fill="#e67e22" font-size="11">6500</text><line x1="560" y1="167.08333333333331" x2="565" y2="167.08333333333331" stroke="#555" stroke-width="1"/>
<text x="570" y="171.08333333333331" fill="#e67e22" font-size="11">7000</text><line x1="560" y1="118.125" x2="565" y2="118.125" stroke="#555" stroke-width="1"/>
<text x="570" y="122.125" fill="#e67e22" font-size="11">7500</text><line x1="560" y1="69.16666666666666" x2="565" y2="69.16666666666666" stroke="#555" stroke-width="1"/>
<text x="570" y="73.16666666666666" fill="#e67e22" font-size="11">8000</text>
<path d="M70.0,265 L70.0,213.2 L161.9,156.0 L253.7,105.3 L345.6,73.8 L437.5,56.7 L529.4,89.8 L560.0,256.5 L560.0,265 Z" fill="#3498db" fill-opacity="0.12"/>
<path d="M70.00,213.19 L161.87,156.05 L253.75,105.31 L345.63,73.80 L437.50,56.70 L529.38,89.82 L560.00,256.45" fill="none" stroke="#3498db" stroke-width="2.2"/>
<path d="M70.00,223.09 L161.87,165.32 L253.75,128.99 L345.63,107.45 L437.50,95.80 L529.38,73.96 L560.00,62.51" fill="none" stroke="#e67e22" stroke-width="2.2" stroke-dasharray="8,3"/>
<circle cx="70.0" cy="213.2" r="4" fill="#3498db"/>
<circle cx="161.9" cy="156.0" r="4" fill="#3498db"/>
<circle cx="253.7" cy="105.3" r="4" fill="#3498db"/>
<circle cx="345.6" cy="73.8" r="4" fill="#3498db"/>
<circle cx="437.5" cy="56.7" r="4" fill="#3498db"/>
<circle cx="529.4" cy="89.8" r="4" fill="#3498db"/>
<circle cx="560.0" cy="256.5" r="4" fill="#3498db"/>
<circle cx="70.0" cy="223.1" r="4" fill="#e67e22"/>
<circle cx="161.9" cy="165.3" r="4" fill="#e67e22"/>
<circle cx="253.7" cy="129.0" r="4" fill="#e67e22"/>
<circle cx="345.6" cy="107.5" r="4" fill="#e67e22"/>
<circle cx="437.5" cy="95.8" r="4" fill="#e67e22"/>
<circle cx="529.4" cy="74.0" r="4" fill="#e67e22"/>
<circle cx="560.0" cy="62.5" r="4" fill="#e67e22"/>
<text x="315" y="305" text-anchor="middle" fill="#333" font-size="12">r/R (non-dimensional radius)</text>
<text x="20" y="147.5" text-anchor="middle" fill="#3498db" font-size="12" transform="rotate(-90,20,147.5)">Chord length (mm)</text>
<text x="610" y="147.5" text-anchor="middle" fill="#e67e22" font-size="12" transform="rotate(90,610,147.5)">Pitch (mm)</text>
<text x="315" y="18" text-anchor="middle" fill="#222" font-size="13" font-weight="bold">Blade Geometry Distribution</text>
<line x1="90" y1="50" x2="114" y2="50" stroke="#3498db" stroke-width="2" />
<text x="120" y="54" fill="#333" font-size="11">Chord length</text>
<line x1="90" y1="68" x2="114" y2="68" stroke="#e67e22" stroke-width="2" stroke-dasharray="6,3"/>
<text x="120" y="72" fill="#333" font-size="11">Pitch</text>

</svg>