<svg xmlns="http://www.w3.org/2000/svg" width="620" height="320" viewBox="0 0 620 320" font-family="'Georgia',serif" font-size="12">
<rect width="620" height="320" fill="#fafafa" rx="4"/>

<line x1="65" y1="30" x2="65" y2="265" stroke="#ddd" stroke-width="0.8" stroke-dasharray="3,3"/><line x1="156.8181818181818" y1="30" x2="156.8181818181818" y2="265" stroke="#ddd" stroke-width="0.8" stroke-dasharray="3,3"/><line x1="248.63636363636365" y1="30" x2="248.63636363636365" y2="265" stroke="#ddd" stroke-width="0.8" stroke-dasharray="3,3"/><line x1="340.45454545454544" y1="30" x2="340.45454545454544" y2="265" stroke="#ddd" stroke-width="0.8" stroke-dasharray="3,3"/><line x1="432.2727272727273" y1="30" x2="432.2727272727273" y2="265" stroke="#ddd" stroke-width="0.8" stroke-dasharray="3,3"/><line x1="524.090909090909" y1="30" x2="524.090909090909" y2="265" stroke="#ddd" stroke-width="0.8" stroke-dasharray="3,3"/><line x1="65" y1="265" x2="570" y2="265" stroke="#ddd" stroke-width="0.8" stroke-dasharray="3,3"/><line x1="65" y1="241.5" x2="570" y2="241.5" stroke="#ddd" stroke-width="0.8" stroke-dasharray="3,3"/><line x1="65" y1="218" x2="570" y2="218" stroke="#ddd" stroke-width="0.8" stroke-dasharray="3,3"/><line x1="65" y1="194.5" x2="570" y2="194.5" stroke="#ddd" stroke-width="0.8" stroke-dasharray="3,3"/><line x1="65" y1="171" x2="570" y2="171" stroke="#ddd" stroke-width="0.8" stroke-dasharray="3,3"/><line x1="65" y1="147.5" x2="570" y2="147.5" stroke="#ddd" stroke-width="0.8" stroke-dasharray="3,3"/><line x1="65" y1="124" x2="570" y2="124" stroke="#ddd" stroke-width="0.8" stroke-dasharray="3,3"/><line x1="65" y1="100.5" x2="570" y2="100.5" stroke="#ddd" stroke-width="0.8" stroke-dasharray="3,3"/><line x1="65" y1="77" x2="570" y2="77" stroke="#ddd" stroke-width="0.8" stroke-dasharray="3,3"/><line x1="65" y1="53.5" x2="570" y2="53.5" stroke="#ddd" stroke-width="0.8" stroke-dasharray="3,3"/><line x1="65" y1="30" x2="570" y2="30" stroke="#ddd" stroke-width="0.8" stroke-dasharray="3,3"/>
<line x1="65" y1="30" x2="65" y2="265" stroke="#555" stroke-width="1.2"/> <line x1="65" y1="265" x2="570" y2="265" stroke="#555" stroke-width="1.2"/>
<line x1="65" y1="265" x2="65" y2="270" stroke="#555" stroke-width="1"/>
<text x="65" y="283" text-anchor="middle" fill="#333" font-size="11">0.0</text><line x1="156.8181818181818" y1="265" x2="156.8181818181818" y2="270" stroke="#555" stroke-width="1"/>
<text x="156.8181818181818" y="283" text-anchor="middle" fill="#333" font-size="11">0.2</text><line x1="248.63636363636365" y1="265" x2="248.63636363636365" y2="270" stroke="#555" stroke-width="1"/>
<text x="248.63636363636365" y="283" text-anchor="middle" fill="#333" font-size="11">0.4</text><line x1="340.45454545454544" y1="265" x2="340.45454545454544" y2="270" stroke="#555" stroke-width="1"/>
<text x="340.45454545454544" y="283" text-anchor="middle" fill="#333" font-size="11">0.6</text><line x1="432.2727272727273" y1="265" x2="432.2727272727273" y2="270" stroke="#555" stroke-width="1"/>
<text x="432.2727272727273" y="283" text-anchor="middle" fill="#333" font-size="11">0.8</text><line x1="524.090909090909" y1="265" x2="524.090909090909" y2="270" stroke="#555" stroke-width="1"/>
<text x="524.090909090909" y="283" text-anchor="middle" fill="#333" font-size="11">1.0</text> <line x1="65" y1="265" x2="60" y2="265" stroke="#555" stroke-width="1"/>
<text x="57" y="269" text-anchor="end" fill="#333" font-size="11">0.0</text><line x1="65" y1="241.5" x2="60" y2="241.5" stroke="#555" stroke-width="1"/>
<text x="57" y="245.5" text-anchor="end" fill="#333" font-size="11">0.1</text><line x1="65" y1="218" x2="60" y2="218" stroke="#555" stroke-width="1"/>
<text x="57" y="222" text-anchor="end" fill="#333" font-size="11">0.2</text><line x1="65" y1="194.5" x2="60" y2="194.5" stroke="#555" stroke-width="1"/>
<text x="57" y="198.5" text-anchor="end" fill="#333" font-size="11">0.3</text><line x1="65" y1="171" x2="60" y2="171" stroke="#555" stroke-width="1"/>
<text x="57" y="175" text-anchor="end" fill="#333" font-size="11">0.4</text><line x1="65" y1="147.5" x2="60" y2="147.5" stroke="#555" stroke-width="1"/>
<text x="57" y="151.5" text-anchor="end" fill="#333" font-size="11">0.5</text><line x1="65" y1="124" x2="60" y2="124" stroke="#555" stroke-width="1"/>
<text x="57" y="128" text-anchor="end" fill="#333" font-size="11">0.6</text><line x1="65" y1="100.5" x2="60" y2="100.5" stroke="#555" stroke-width="1"/>
<text x="57" y="104.5" text-anchor="end" fill="#333" font-size="11">0.7</text><line x1="65" y1="77" x2="60" y2="77" stroke="#555" stroke-width="1"/>
<text x="57" y="81" text-anchor="end" fill="#333" font-size="11">0.8</text><line x1="65" y1="53.5" x2="60" y2="53.5" stroke="#555" stroke-width="1"/>
<text x="57" y="57.5" text-anchor="end" fill="#333" font-size="11">0.9</text><line x1="65" y1="30" x2="60" y2="30" stroke="#555" stroke-width="1"/>
<text x="57" y="34" text-anchor="end" fill="#333" font-size="11">1.0</text>
<path d="M65.00,176.88 L74.18,178.53 L83.36,180.18 L92.55,181.84 L101.73,183.49 L110.91,185.15 L120.09,186.80 L129.27,188.46 L138.45,190.11 L147.64,191.76 L156.82,193.42 L166.00,195.07 L175.18,196.73 L184.36,198.38 L193.55,200.04 L202.73,201.69 L211.91,203.35 L221.09,205.00 L230.27,206.65 L239.45,208.31 L248.64,209.96 L257.82,211.62 L267.00,213.27 L276.18,214.93 L285.36,216.58 L294.55,218.24 L303.73,219.89 L312.91,221.54 L322.09,223.20 L331.27,224.85 L340.45,226.51 L349.64,228.16 L358.82,229.82 L368.00,231.47 L377.18,233.12 L386.36,234.78 L395.55,236.43 L404.73,238.09 L413.91,239.74 L423.09,241.40 L432.27,243.05 L441.45,244.71 L450.64,246.36 L459.82,248.01 L469.00,249.67 L478.18,251.32 L487.36,252.98 L496.55,254.63 L505.73,256.29 L514.91,257.94 L524.09,259.59 L533.27,261.25 L542.45,262.90 L551.64,264.56"  fill="none" stroke="#2980b9" stroke-width="2.2"/>
<path d="M65.00,177.58 L74.18,178.88 L83.36,180.18 L92.55,181.49 L101.73,182.79 L110.91,184.09 L120.09,185.39 L129.27,186.69 L138.45,188.00 L147.64,189.30 L156.82,190.60 L166.00,191.90 L175.18,193.20 L184.36,194.50 L193.55,195.81 L202.73,197.11 L211.91,198.41 L221.09,199.71 L230.27,201.01 L239.45,202.32 L248.64,203.62 L257.82,204.92 L267.00,206.22 L276.18,207.52 L285.36,208.83 L294.55,210.13 L303.73,211.43 L312.91,212.73 L322.09,214.03 L331.27,215.34 L340.45,216.64 L349.64,217.94 L358.82,219.24 L368.00,220.54 L377.18,221.84 L386.36,223.15 L395.55,224.45 L404.73,225.75 L413.91,227.05 L423.09,228.35 L432.27,229.66 L441.45,230.96 L450.64,232.26 L459.82,233.56 L469.00,234.86 L478.18,236.17 L487.36,237.47 L496.55,238.77 L505.73,240.07 L514.91,241.37 L524.09,242.68 L533.27,243.98 L542.45,245.28 L551.64,246.58"  fill="none" stroke="#e74c3c" stroke-width="2.2"/>
<path d="M65.00,265.00 L74.18,257.49 L83.36,250.04 L92.55,242.65 L101.73,235.34 L110.91,228.09 L120.09,220.91 L129.27,213.82 L138.45,206.80 L147.64,199.87 L156.82,193.03 L166.00,186.29 L175.18,179.64 L184.36,173.11 L193.55,166.68 L202.73,160.37 L211.91,154.19 L221.09,148.13 L230.27,142.22 L239.45,136.46 L248.64,130.86 L257.82,125.43 L267.00,120.17 L276.18,115.11 L285.36,110.26 L294.55,105.62 L303.73,101.23 L312.91,97.08 L322.09,93.22 L331.27,89.64 L340.45,86.39 L349.64,83.48 L358.82,80.95 L368.00,78.83 L377.18,77.15 L386.36,75.96 L395.55,75.30 L404.73,75.23 L413.91,75.80 L423.09,77.10 L432.27,79.19 L441.45,82.16 L450.64,86.13 L459.82,91.21 L469.00,97.56 L478.18,105.34 L487.36,114.75 L496.55,126.03 L505.73,139.49 L514.91,155.48 L524.09,174.45 L533.27,196.94 L542.45,223.66 L551.64,255.49" fill="none" stroke="#27ae60" stroke-width="2.2" stroke-dasharray="8,3"/>
<!-- design point verticals -->
<line x1="359.73636363636365" y1="30" x2="359.73636363636365" y2="265" stroke="#999" stroke-width="1" stroke-dasharray="4,3"/>
<circle cx="359.73636363636365" cy="229.98124" r="5" fill="#2980b9"/>
<circle cx="359.73636363636365" cy="219.37099" r="5" fill="#e74c3c"/>
<circle cx="359.73636363636365" cy="80.71807522032219"  r="5" fill="#27ae60"/>
<text x="364.73636363636365" y="222.98124"  fill="#2980b9" font-size="11">K&#x209C; = 0.151</text>
<text x="364.73636363636365" y="233.37099" fill="#e74c3c" font-size="11">10K&#x1D214; = 0.195</text>
<text x="364.73636363636365" y="73.71807522032219"  fill="#27ae60" font-size="11">η&#x2080; = 0.657</text>
<text x="359.73636363636365" y="283" text-anchor="middle" fill="#555" font-size="11">J = 0.642</text>
<text x="317.5" y="305" text-anchor="middle" fill="#333" font-size="12">Advance coefficient J = V&#x2090;/(nD)</text>
<text x="20" y="147.5" text-anchor="middle" fill="#333" font-size="12" transform="rotate(-90,20,147.5)">K&#x209C;, 10K&#x1D214;, η&#x2080;</text>
<text x="317.5" y="18" text-anchor="middle" fill="#222" font-size="13" font-weight="bold">Open-Water Performance (MAU 4-blade)</text>
<line x1="85" y1="46" x2="109" y2="46" stroke="#2980b9" stroke-width="2" />
<text x="115" y="50" fill="#333" font-size="11">KT</text>
<line x1="85" y1="64" x2="109" y2="64" stroke="#e74c3c" stroke-width="2" />
<text x="115" y="68" fill="#333" font-size="11">10KQ</text>
<line x1="85" y1="82" x2="109" y2="82" stroke="#27ae60" stroke-width="2" stroke-dasharray="6,3"/>
<text x="115" y="86" fill="#333" font-size="11">η₀</text>

</svg>